<svg xmlns="http://www.w3.org/2000/svg" width="512" height="512" viewBox="0 0 512 512" fill="none">
<path d="M469.333 43.4347V25.6C469.333 11.4615 457.872 0 443.733 0C429.595 0 418.133 11.4615 418.133 25.6V42.6667H375.467V25.6C375.467 11.4615 364.005 0 349.867 0C335.728 0 324.267 11.4615 324.267 25.6V42.6667H281.6V25.6C281.6 11.4615 270.139 0 256 0C241.862 0 230.4 11.4615 230.4 25.6V42.6667H187.733V25.6C187.733 11.4615 176.272 0 162.133 0C147.995 0 136.533 11.4615 136.533 25.6V42.6667H93.8667V25.6C93.8667 11.4615 82.4052 0 68.2667 0C54.1282 0 42.6667 11.4615 42.6667 25.6V43.4347C18.0625 47.6149 0.0463329 68.9099 0 93.8667V477.867C0 496.718 15.282 512 34.1333 512H477.867C496.718 512 512 496.718 512 477.867V93.8667C511.954 68.9099 493.938 47.6149 469.333 43.4347ZM435.2 25.6C435.2 20.8872 439.021 17.0667 443.733 17.0667C448.446 17.0667 452.267 20.8872 452.267 25.6V76.8C452.267 81.5128 448.446 85.3333 443.733 85.3333C439.021 85.3333 435.2 81.5128 435.2 76.8V25.6ZM341.333 25.6C341.333 20.8872 345.154 17.0667 349.867 17.0667C354.58 17.0667 358.4 20.8872 358.4 25.6V76.8C358.4 81.5128 354.58 85.3333 349.867 85.3333C345.154 85.3333 341.333 81.5128 341.333 76.8V25.6ZM247.467 25.6C247.467 20.8872 251.287 17.0667 256 17.0667C260.713 17.0667 264.533 20.8872 264.533 25.6V76.8C264.533 81.5128 260.713 85.3333 256 85.3333C251.287 85.3333 247.467 81.5128 247.467 76.8V25.6ZM153.6 25.6C153.6 20.8872 157.421 17.0667 162.133 17.0667C166.846 17.0667 170.667 20.8872 170.667 25.6V76.8C170.667 81.5128 166.846 85.3333 162.133 85.3333C157.421 85.3333 153.6 81.5128 153.6 76.8V25.6ZM59.7333 25.6C59.7333 20.8872 63.5538 17.0667 68.2667 17.0667C72.9795 17.0667 76.8 20.8872 76.8 25.6V76.8C76.8 81.5128 72.9795 85.3333 68.2667 85.3333C63.5538 85.3333 59.7333 81.5128 59.7333 76.8V25.6ZM477.867 494.933H34.1333C24.7077 494.933 17.0667 487.292 17.0667 477.867V153.6H145.067C149.78 153.6 153.6 149.78 153.6 145.067C153.6 140.354 149.78 136.533 145.067 136.533H17.0667V93.8667C17.1248 78.3496 27.6422 64.8243 42.6667 60.9451V76.8C42.6667 90.9385 54.1282 102.4 68.2667 102.4C82.4052 102.4 93.8667 90.9385 93.8667 76.8V59.7333H136.533V76.8C136.533 90.9385 147.995 102.4 162.133 102.4C176.272 102.4 187.733 90.9385 187.733 76.8V59.7333H230.4V76.8C230.4 90.9385 241.862 102.4 256 102.4C270.139 102.4 281.6 90.9385 281.6 76.8V59.7333H324.267V76.8C324.267 90.9385 335.728 102.4 349.867 102.4C364.005 102.4 375.467 90.9385 375.467 76.8V59.7333H418.133V76.8C418.133 90.9385 429.595 102.4 443.733 102.4C457.872 102.4 469.333 90.9385 469.333 76.8V60.9451C484.358 64.8243 494.875 78.3496 494.933 93.8667V136.533H375.467C370.754 136.533 366.933 140.354 366.933 145.067C366.933 149.78 370.754 153.6 375.467 153.6H494.933V477.867C494.933 487.292 487.292 494.933 477.867 494.933Z" fill="white"/>
<path d="M469.333 170.667H426.667C421.954 170.667 418.133 174.487 418.133 179.2C418.133 183.913 421.954 187.733 426.667 187.733H460.8V460.8H426.667C421.954 460.8 418.133 464.621 418.133 469.333C418.133 474.046 421.954 477.867 426.667 477.867H469.333C474.046 477.867 477.867 474.046 477.867 469.333V179.2C477.867 174.487 474.046 170.667 469.333 170.667Z" fill="white"/>
<path d="M85.3333 187.733C90.0461 187.733 93.8666 183.913 93.8666 179.2C93.8666 174.487 90.0461 170.667 85.3333 170.667H42.6666C37.9538 170.667 34.1333 174.487 34.1333 179.2V469.333C34.1333 474.046 37.9538 477.867 42.6666 477.867H85.3333C90.0461 477.867 93.8666 474.046 93.8666 469.333C93.8666 464.621 90.0461 460.8 85.3333 460.8H51.2V187.733H85.3333Z" fill="white"/>
<path d="M188.365 223.71H188.663C190.926 223.632 193.064 222.659 194.608 221.004C196.153 219.349 196.976 217.148 196.898 214.886C196.215 195.157 201.899 184.764 217.156 177.826C221.434 175.869 223.321 170.82 221.376 166.538C219.431 162.255 214.387 160.354 210.099 162.287C188.536 172.092 178.927 188.988 179.84 215.475C180.001 220.068 183.77 223.708 188.365 223.71Z" fill="white"/>
<path d="M418.133 239.787C418.133 217.839 412.322 203.17 400.87 196.207C390.39 190.727 377.977 190.347 367.181 195.174C365.443 166.554 347.145 141.587 320.375 131.311C300.26 123.06 278.658 119.048 256.922 119.526C237.922 119.085 219.014 122.294 201.224 128.981C174.891 139.392 143.88 163.055 145.758 216.636C146.077 225.957 148.048 235.147 151.578 243.78C152.55 284.843 156.698 342.963 179.217 385.826V452.267C179.217 466.405 190.679 477.867 204.817 477.867H307.2C321.338 477.867 332.8 466.405 332.8 452.267V388.267C349.406 375.253 418.133 316.851 418.133 239.787V239.787ZM207.496 144.853C222.334 139.329 238.042 136.511 253.875 136.533C274.239 135.727 294.542 139.258 313.438 146.893C346.317 161.519 357.265 190.072 345.967 231.765C331.383 285.594 284.424 298.086 245.35 291.832C213.248 286.712 180.403 267.537 167.962 238.805C167.815 238.396 167.636 237.999 167.424 237.619C164.604 230.762 163.029 223.457 162.773 216.047C161.579 181.018 176.64 157.065 207.496 144.853V144.853ZM321.365 375.467H248.038C243.326 375.467 239.505 379.287 239.505 384C239.505 388.713 243.326 392.533 248.038 392.533H315.733V418.133C315.674 418.133 315.631 418.133 315.571 418.133H252.194C247.481 418.133 243.661 421.954 243.661 426.667C243.661 431.38 247.481 435.2 252.194 435.2H315.546H315.708V452.267C315.708 456.98 311.887 460.8 307.174 460.8H204.8C200.087 460.8 196.267 456.98 196.267 452.267V392.533H213.931C218.643 392.533 222.464 388.713 222.464 384C222.464 379.287 218.643 375.467 213.931 375.467H193.143C177.783 344.9 172.023 305.732 169.822 271.625C194.567 296.344 228.097 310.255 263.074 310.315C303.232 310.315 347.486 291.448 362.445 236.237C364.479 228.844 365.928 221.303 366.78 213.683C377.873 208.649 386.748 207.582 392.004 210.782C397.978 214.392 401.067 224.435 401.067 239.795C401.067 310.093 333.739 365.824 321.365 375.467V375.467Z" fill="white"/>
<path d="M298.121 320C296.997 318.034 295.139 316.595 292.954 315.999C290.77 315.404 288.438 315.701 286.472 316.826L260.873 331.469L235.273 316.826C232.621 315.226 229.311 315.189 226.623 316.728C223.936 318.267 222.294 321.141 222.332 324.238C222.37 327.334 224.083 330.167 226.807 331.64L243.644 341.333L226.739 350.993C223.377 352.917 221.732 356.864 222.733 360.607C223.735 364.349 227.132 366.947 231.006 366.933C232.488 366.936 233.945 366.547 235.23 365.807L260.83 351.164L286.43 365.807C289.082 367.407 292.392 367.444 295.079 365.905C297.766 364.366 299.409 361.492 299.37 358.395C299.332 355.298 297.619 352.466 294.895 350.993L278.042 341.333L294.938 331.674C296.912 330.552 298.358 328.69 298.956 326.499C299.553 324.308 299.253 321.969 298.121 320V320Z" fill="white"/>
</svg>