<svg xmlns="http://www.w3.org/2000/svg" width="512" height="512" viewBox="0 0 512 512" fill="none">
<path d="M96.2528 371.259C99.978 410.802 124.934 445.183 161.378 460.977C176.097 467.344 191.966 470.626 208.003 470.621C213.928 470.613 219.843 470.147 225.697 469.227C230.246 484.126 246.21 504.312 299.441 504.312C333.326 504.312 368.654 495.557 388.412 467.876C394.212 460.041 397.892 450.842 399.097 441.168C399.097 441.109 399.147 441.067 399.164 441.008C404.145 412.081 401.4 382.351 391.207 354.825C392.057 351.594 392.654 348.302 392.995 344.979C396.163 322.389 390.113 299.473 376.208 281.39C374.105 279.01 371.82 276.796 369.375 274.768V210.013C369.319 190.94 356.394 174.31 337.925 169.548L294.9 58.8719C305.382 49.7264 309.139 35.0641 304.345 22.0052C299.552 8.94635 287.202 0.195925 273.293 0.00324435C259.383 -0.189436 246.796 8.21554 241.643 21.1366C236.489 34.0577 239.838 48.8184 250.063 58.2507L225.294 117.685H180.531C157.365 117.712 138.592 136.486 138.564 159.652V234.446C125.633 245.788 115.501 259.967 108.961 275.876C102.739 292.138 98.61 309.126 96.6725 326.43C94.6228 340.924 94.4563 355.622 96.1773 370.159C96.1774 370.527 96.2026 370.895 96.2528 371.259V371.259ZM168.067 445.566C137.246 432.141 116.145 403.039 112.964 369.572C112.964 369.201 112.939 368.831 112.889 368.464C110.967 353.943 131.438 333.866 150.986 325.657C167.488 318.724 199.937 312.052 233.242 343.586C235.206 349.929 238.359 355.839 242.534 361.002C245.236 364.192 248.492 366.867 252.144 368.9C247.372 372.384 243.39 376.838 240.461 381.969C238.919 384.542 238.868 387.742 240.325 390.363C241.783 392.984 244.528 394.629 247.527 394.677C250.526 394.725 253.322 393.17 254.864 390.597C257.213 385.68 261.524 381.978 266.74 380.399C273.407 379.938 279.501 384.166 281.404 390.572C286.264 401.878 283.469 421.133 259.581 438.197C232.279 455.953 197.858 458.725 168.067 445.566V445.566ZM374.109 458.954C364.658 471.678 344.405 486.954 301.649 487.491C268.193 487.802 247.293 479.853 242.055 465.341C251.795 462.289 260.999 457.735 269.334 451.844C282.036 443.499 291.807 431.386 297.276 417.205C309.18 405.536 326.234 400.783 342.458 404.615C359.188 409.781 373.413 420.961 382.385 435.998C382.499 444.4 379.558 452.557 374.109 458.954V458.954ZM385.021 411.95C378.604 405.282 371.215 399.622 363.106 395.163C367.004 392.781 370.569 389.89 373.706 386.569C376.167 383.886 378.439 381.037 380.505 378.041C383.237 389.135 384.751 400.494 385.021 411.917V411.95ZM352.597 210.013V264.234C345.434 260.981 337.932 258.535 330.228 256.94C328.155 256.512 326.074 256.101 323.984 255.774C320.983 255.181 317.897 256.268 315.93 258.611C313.963 260.953 313.426 264.181 314.529 267.034C315.632 269.887 318.199 271.915 321.231 272.325C323.086 272.636 324.941 272.98 326.754 273.366C340.771 275.556 353.695 282.247 363.576 292.428C375.377 305.857 377.895 327.538 376.308 343.326C374.905 355.248 369.675 366.395 361.402 375.095C355.678 382.281 346.43 385.685 337.413 383.925C330.225 381.14 325.33 374.407 324.899 366.71C326.623 353.83 333.715 342.28 344.422 334.915C347.884 331.935 348.326 326.734 345.418 323.211C342.51 319.688 337.319 319.138 333.737 321.973C325.948 328.402 307.868 345.659 308.112 366.928C308.328 374.738 311.133 382.255 316.085 388.298C310.382 389.813 304.901 392.07 299.785 395.012C299.311 391.219 298.311 387.51 296.814 383.992C294.139 377.609 289.647 372.154 283.897 368.305C293.357 360.362 299.165 348.903 299.978 336.577C302.41 316.399 300.784 295.937 295.194 276.396C292.065 265.14 287.372 254.378 281.253 244.426V184.832H327.417C341.323 184.832 352.597 196.106 352.597 210.013V210.013ZM272.859 16.9634C282.13 16.9634 289.646 24.4791 289.646 33.7503C289.646 43.0214 282.13 50.5372 272.859 50.5372C263.588 50.5372 256.072 43.0214 256.072 33.7503C256.072 24.4791 263.588 16.9634 272.859 16.9634ZM272.859 67.324C275.221 67.3184 277.576 67.0624 279.885 66.5602L319.351 168.045H281.253V159.652C281.188 138.1 264.772 120.118 243.314 118.096L264.902 66.2665C267.502 66.9391 270.174 67.2942 272.859 67.324V67.324ZM124.522 282.196C133.913 259.485 151.654 241.238 174.094 231.214C178.326 229.323 180.224 224.359 178.332 220.127C176.441 215.894 171.477 213.997 167.245 215.888C163.158 217.74 159.186 219.837 155.351 222.166V159.652C155.351 145.745 166.625 134.472 180.531 134.472H239.285C253.192 134.472 264.466 145.745 264.466 159.652V224.642C252.774 214.591 238.611 207.846 223.439 205.102C220.462 204.463 217.373 205.486 215.366 207.775C213.359 210.064 212.749 213.261 213.771 216.128C214.794 218.995 217.289 221.084 220.291 221.587C238.995 224.697 255.532 235.521 265.868 251.417C271.735 260.53 276.179 270.485 279.045 280.937C284.016 298.239 285.48 316.36 283.351 334.236C281.907 344.408 277.962 356.57 268.243 356.764C263.224 356.471 258.562 354.075 255.401 350.166C252.1 345.908 249.721 341.008 248.418 335.78V335.679C242.735 315.644 245.589 290.682 249.442 270.152C250.294 265.593 247.29 261.205 242.731 260.352C238.172 259.499 233.785 262.504 232.932 267.063C232.42 269.824 231.807 273.4 231.186 277.487C224.612 273.21 217.488 269.844 210.009 267.482C205.561 266.173 200.894 268.717 199.585 273.165C198.275 277.613 200.819 282.28 205.267 283.589C214.087 286.257 222.164 290.941 228.861 297.271C228.376 304.36 228.357 311.473 228.802 318.565C204.027 301.463 172.202 298.292 144.54 310.172C132.663 315.167 121.941 322.552 113.04 331.869C113.157 330.777 113.224 329.72 113.367 328.62C115.118 312.738 118.866 297.14 124.522 282.196V282.196Z" fill="white"/>
<path d="M208.037 420.243C198.891 420.246 189.841 418.387 181.438 414.779C161.881 406.239 148.486 387.775 146.437 366.533C146.088 363.481 144.099 360.863 141.252 359.708C138.405 358.554 135.154 359.047 132.778 360.995C130.401 362.943 129.279 366.033 129.852 369.051C132.624 396.059 149.81 419.445 174.757 430.156C185.268 434.681 196.592 437.014 208.037 437.013C212.672 437.013 216.43 433.255 216.43 428.62C216.43 423.984 212.672 420.226 208.037 420.226V420.243Z" fill="white"/>
</svg>