<svg width="512" height="482" viewBox="0 0 512 482" fill="none" xmlns="http://www.w3.org/2000/svg">
<path d="M59 284L96 321L136 359L82 403L9 333L59 284Z" fill="#D62324"/>
<path d="M456 284L419 321L379 359L433 403L506 333L456 284Z" fill="#D62324"/>
<path d="M60.7914 403.061C65.4763 407.78 71.8574 410.423 78.5066 410.4C85.1332 410.406 91.4883 407.767 96.1621 403.07L129.707 369.525C167.108 357.741 201.02 325.775 221.867 305.798C228.547 302.951 234.682 298.967 240 294.022C246.503 288.079 252.032 281.151 256.384 273.491C260.742 281.149 266.273 288.077 272.777 294.022C278.095 298.97 284.234 302.955 290.918 305.798C311.791 325.775 345.702 357.741 383.078 369.525L416.623 403.07C426.406 412.832 442.245 412.832 452.028 403.07L504.644 350.462C514.386 340.674 514.386 324.853 504.644 315.066L472.533 282.963C474.24 265.197 477.653 198.065 435.84 156.218C423.245 143.622 411.486 138.571 400.768 141.148C392.742 143.476 386.107 149.147 382.558 156.713C365.461 143.167 342.32 140.069 322.261 148.64C306.502 155.232 292.269 164.998 280.448 177.329C270.602 186.81 262.464 197.919 256.393 210.165C250.331 197.913 242.192 186.803 232.337 177.329C220.52 164.993 206.286 155.227 190.524 148.64C170.465 140.061 147.319 143.156 130.219 156.704C126.667 149.145 120.037 143.478 112.017 141.148C101.359 138.588 89.5488 143.622 76.945 156.218C35.1317 198.031 38.545 265.197 40.2517 282.963L8.19197 315.066C-1.55931 324.85 -1.55931 340.678 8.19197 350.462L60.7914 403.061ZM404.838 157.737C409.182 156.678 416.068 160.527 423.817 168.284C460.885 205.353 456.823 268.721 455.484 282.212L421.06 316.644C418.842 318.787 417.952 321.959 418.733 324.943C419.514 327.926 421.844 330.256 424.828 331.037C427.811 331.818 430.984 330.929 433.126 328.71L463.659 298.17L474.923 309.434L445.833 338.524C443.614 340.666 442.725 343.839 443.505 346.822C444.286 349.806 446.616 352.136 449.6 352.917C452.583 353.698 455.756 352.808 457.899 350.59L486.989 321.5L492.621 327.132C495.728 330.243 495.728 335.284 492.621 338.396L440.013 391.004C436.901 394.111 431.86 394.111 428.749 391.004L399.795 362.042L409.796 352.032C413.03 348.684 412.984 343.361 409.692 340.07C406.401 336.778 401.078 336.732 397.73 339.966L385.399 352.305C361.924 342.706 340.442 328.816 322.057 311.345C342.444 310.391 362.106 303.488 378.615 291.488C407.356 270.684 431.522 230.005 405.069 183.84C402.221 178.866 398.997 174.116 395.426 169.632C398.123 162.933 401.442 158.556 404.838 157.737V157.737ZM270.455 220.346C275.86 208.623 283.444 198.036 292.804 189.148C302.907 178.652 315.017 170.294 328.414 164.572C334.318 162.191 340.609 160.918 346.974 160.817C363.87 160.817 378.138 171.262 390.229 192.39C411.059 228.691 392.713 260.273 368.614 277.724C343.791 295.695 306.953 302.564 284.476 281.589C265.327 263.627 260.608 243.078 270.455 220.346ZM165.897 160.817C172.261 160.917 178.553 162.19 184.457 164.572C198.108 170.429 210.428 178.996 220.672 189.754C229.81 198.466 237.191 208.851 242.415 220.346C252.271 243.078 247.535 263.661 228.403 281.547C205.952 302.505 169.139 295.686 144.265 277.681C120.166 260.23 101.828 228.649 122.641 192.348C134.741 171.253 149.009 160.817 165.897 160.817ZM89.0965 168.284C96.8533 160.527 103.748 156.636 108.066 157.737C111.479 158.59 114.782 162.916 117.513 169.683C113.936 174.163 110.712 178.913 107.87 183.891C81.4165 230.057 105.549 270.735 134.323 291.539C150.833 303.544 170.499 310.448 190.891 311.396C172.503 328.869 151.019 342.76 127.539 352.356L115.209 340.017C113.062 337.851 109.923 336.994 106.974 337.77C104.025 338.546 101.714 340.836 100.911 343.778C100.109 346.719 100.936 349.866 103.083 352.032L113.084 362.042L84.1216 391.004C82.6344 392.496 80.6137 393.335 78.5066 393.333C76.3994 393.336 74.3784 392.497 72.8917 391.004L20.2581 338.396C17.1739 335.274 17.1739 330.253 20.2581 327.132L25.8901 321.5L54.9717 350.59C57.1142 352.808 60.2869 353.698 63.2704 352.917C66.2539 352.136 68.5839 349.806 69.3649 346.822C70.1458 343.839 69.2561 340.666 67.0378 338.524L37.9562 309.434L49.2202 298.17L79.7525 328.71C81.895 330.929 85.0677 331.818 88.0512 331.037C91.0347 330.256 93.3647 327.926 94.1457 324.943C94.9266 321.959 94.0369 318.787 91.8186 316.644L57.3866 282.212C56.0298 268.747 51.8912 205.463 89.0709 168.284H89.0965Z" fill="black"/>
<path d="M140.604 212.486C144.69 214.833 149.904 213.423 152.252 209.338C158.327 198.748 163.345 194.967 165.905 194.967C168.067 195.076 170.191 195.574 172.177 196.435C176.574 198.139 181.52 195.955 183.223 191.558C184.927 187.161 182.744 182.216 178.347 180.512C174.408 178.891 170.206 178.006 165.948 177.901C155.631 177.901 146.321 185.41 137.455 200.838C135.109 204.925 136.518 210.139 140.604 212.486V212.486Z" fill="black"/>
<path d="M406.187 121.641C402.7 121.64 399.565 119.518 398.268 116.282C392.116 100.851 390.273 84.0387 392.934 67.6416C374.161 80.1771 346.001 93.5232 317.073 87.2683C292.053 81.8667 271.556 62.9653 256 31.0251C240.444 62.9653 219.947 81.8496 194.918 87.2768C166.007 93.5403 137.839 80.1941 119.057 67.6501C121.719 84.0472 119.875 100.859 113.724 116.29C112.655 119.214 110.079 121.323 107.003 121.795C103.926 122.267 100.837 121.026 98.9409 118.557C97.0452 116.088 96.6442 112.783 97.8944 109.933C105.899 89.5459 104.749 66.7011 94.7371 47.2213C92.9594 43.4909 94.1102 39.0228 97.4687 36.6151C100.827 34.2075 105.428 34.5523 108.39 37.4336C108.817 37.8603 150.989 79.3579 191.326 70.5941C214.852 65.4741 233.907 43.8507 247.97 6.34666C249.215 3.00807 252.403 0.794266 255.966 0.794266C259.529 0.794266 262.717 3.00807 263.962 6.34666C278.025 43.8507 297.079 65.4656 320.606 70.5941C360.96 79.3067 403.149 37.8432 403.575 37.4251C406.538 34.5437 411.139 34.199 414.497 36.6066C417.856 39.0142 419.006 43.4823 417.229 47.2128C407.221 66.6938 406.071 89.5367 414.071 109.924C415.128 112.553 414.811 115.534 413.226 117.882C411.641 120.23 408.994 121.638 406.161 121.641H406.187Z" fill="black"/>
<path d="M256 481.397C252.441 481.4 249.254 479.192 248.004 475.859C233.941 438.313 214.886 416.74 191.36 411.612C151.014 402.882 108.851 444.346 108.425 444.772C105.074 448.004 99.7516 447.954 96.4623 444.66C93.173 441.366 93.1306 436.044 96.3669 432.698C98.3466 430.709 145.545 384.228 194.918 394.921C219.947 400.348 240.444 419.232 256 451.164C271.556 419.232 292.053 400.348 317.082 394.921C366.464 384.245 413.653 430.761 415.633 432.698C418.869 436.044 418.827 441.366 415.538 444.66C412.248 447.954 406.926 448.004 403.575 444.772C403.149 444.354 360.969 402.848 320.64 411.612C297.114 416.732 278.059 438.347 263.996 475.859C262.746 479.192 259.559 481.4 256 481.397V481.397Z" fill="black"/>
</svg>
