<svg width="1910" height="1192" viewBox="0 0 1910 1192" fill="none" xmlns="http://www.w3.org/2000/svg">
<path d="M1029.89 125.418L1072.39 114.339L1032.26 102.337L1061.61 59.982L987.074 81.6426L1001.59 0L943.529 64.0159L911.475 8.72104L892.18 71.2739L836.641 64.5698L864.942 91.9828L830.432 125.418H889.778L886.94 92.7782L906.917 95.1218L917.329 61.445L939.545 100.164L967.997 68.7599L960.273 112.166L1009.52 97.8205L997.854 114.751L1007.67 117.777L1029.89 125.418Z" fill="#D62324"/>
<path d="M388.295 490.813C363.941 490.813 343.712 471.792 341.103 446.672C335.694 393.219 333.904 339.468 335.639 285.831C336.39 259.246 357.357 238.178 382.9 238.178H460.129C468.53 224.005 482.312 214.181 497.883 210.883C525.174 205.04 550.02 190.312 568.679 168.789C612.511 118.279 679.032 96.4434 742.793 111.868C763.391 116.801 776.572 137.77 772.816 159.52C797.088 155.156 821.579 153.208 846.084 154.147C875.301 155.156 901.65 173.168 914.257 200.662C959.346 299.45 954.62 415.169 901.513 509.578C883.538 541.564 851.835 562.391 816.416 565.419C712.374 574.304 607.485 560.173 508.893 524.192C492.338 518.108 478.269 506.308 468.816 490.813H388.295ZM813.862 533.205C839.254 531.016 861.819 516.132 874.686 493.358C922.63 408.061 926.81 303.686 886.242 214.48C878.579 197.79 862.571 187 845.032 186.389C781.353 184.228 718.48 201.671 664.334 236.444L654.677 211.722L738.204 159.719C742.247 157.146 743.599 151.716 741.209 147.508C739.843 145.404 738.067 143.911 735.663 143.2C682.993 130.562 627.933 148.588 591.763 190.469C568.679 217.039 538.041 235.349 504.194 242.514C491.9 245.187 482.899 255.934 482.462 268.871C479.539 330.341 481.41 391.67 487.926 452.756C490.002 471.522 502.077 487.358 519.233 493.571C613.782 528.301 714.068 541.621 813.862 533.205ZM842.164 473.483C874.372 416.008 884.125 347.784 869.441 282.93C861.259 246.836 827.945 223.379 792.595 228.682C784.932 229.904 777.146 231.411 769.51 233.373L774.373 255.195C781.421 253.389 788.688 251.982 795.709 250.902C819.981 247.22 842.915 263.284 848.447 288.006C861.929 347.258 853.023 409.539 823.505 462.096L842.164 473.483ZM457.138 456.41C453.081 419.292 450.677 381.889 450.172 344.515H425.216C414.289 344.515 405.219 353.897 405.219 365.427C405.219 366.066 405.301 366.592 405.301 367.289C407.391 393.219 410.546 418.993 414.507 444.781C415.928 454.946 424.465 462.409 434.272 462.409H458.026C457.507 460.461 457.288 458.443 457.138 456.41ZM398.758 447.383C394.797 421.168 391.642 394.954 389.47 368.696C389.32 367.616 389.32 366.536 389.32 365.427C389.32 344.771 405.424 328.024 425.203 328.024H449.926C449.926 307.809 450.376 287.622 451.346 267.421C451.346 267.193 451.346 266.895 451.428 266.568H382.886C372.014 266.568 363.108 275.453 362.889 286.811C361.154 339.241 362.971 391.641 368.216 443.701C369.405 454.306 377.955 462.409 388.295 462.409H404.536C401.558 457.917 399.605 452.77 398.758 447.383Z" fill="#D62324"/>
<path d="M1451.14 490.813C1441.84 506.308 1427.69 518.108 1411.04 524.192C1312.45 560.173 1207.75 574.304 1103.62 565.419C1068.12 562.391 1036.43 541.564 1018.59 509.578C965.34 415.169 960.614 299.45 1005.86 200.662C1018.29 173.154 1044.65 155.156 1073.87 154.147C1098.52 153.208 1123.01 155.156 1147.28 159.52C1143.38 137.784 1156.58 116.801 1177.17 111.868C1240.91 96.4434 1307.56 118.279 1351.24 168.789C1369.87 190.312 1394.79 205.04 1422.05 210.883C1437.77 214.167 1451.37 224.005 1459.79 238.178H1537.02C1562.57 238.178 1583.54 259.232 1584.3 285.831C1586.17 339.468 1584.3 393.219 1578.82 446.672C1576.35 471.806 1555.98 490.813 1531.78 490.813H1451.14ZM1400.8 493.585C1417.87 487.358 1429.93 471.536 1432.02 452.77C1438.55 391.684 1440.56 330.355 1437.63 268.885C1437.05 255.963 1428.04 245.215 1415.77 242.528C1381.91 235.363 1351.26 217.053 1328.19 190.483C1292.02 148.602 1236.94 130.576 1184.3 143.214C1179.65 144.465 1176.81 149.299 1177.85 154.147C1178.37 156.492 1179.8 158.511 1181.91 159.748L1265.28 211.75L1255.61 236.472C1201.45 201.7 1138.62 184.242 1074.93 186.417C1057.41 187.029 1041.36 197.819 1033.73 214.508C993.121 303.714 997.478 408.089 1045.27 493.386C1058.12 516.16 1080.83 531.03 1106.09 533.234C1206.04 541.621 1306.32 528.301 1400.8 493.585ZM1096.43 462.11C1067.09 409.553 1058.13 347.273 1071.49 288.02C1077.19 263.298 1100.11 247.234 1124.23 250.916C1131.26 251.996 1138.53 253.404 1145.56 255.209L1150.42 233.387C1142.78 231.425 1135.09 229.919 1127.37 228.696C1092.09 223.393 1058.82 246.85 1050.5 282.945C1035.84 347.799 1045.57 416.022 1077.76 473.498L1096.43 462.11ZM1462.07 462.409H1485.74C1495.63 462.409 1504.03 454.946 1505.58 444.781C1509.41 418.993 1512.55 393.219 1514.67 367.289C1515.7 355.689 1507.54 345.638 1496.53 344.685C1495.84 344.515 1495.18 344.515 1494.72 344.515H1469.77C1469.25 381.889 1466.83 419.292 1462.96 456.41C1462.65 458.443 1462.44 460.461 1462.07 462.409ZM1515.54 462.409H1531.79C1542.13 462.409 1550.67 454.306 1551.8 443.701C1557.05 391.641 1558.92 339.241 1557.05 286.826C1556.82 275.467 1547.91 266.582 1537.05 266.582H1468.57C1468.57 266.895 1468.72 267.207 1468.72 267.435C1469.55 287.636 1470 307.823 1470 328.038H1494.74C1495.78 328.038 1496.81 328.038 1497.87 328.18C1517.64 329.901 1532.19 348.055 1530.45 368.725C1528.28 394.996 1525.14 421.196 1521.15 447.411C1520.33 452.77 1518.54 457.917 1515.54 462.409Z" fill="#D62324"/>
<path d="M26.95 707.1V957H58.45V756.45H59.15L189.7 957H226.1V707.1H194.6V909.75H193.9L62.3 707.1H26.95ZM383.138 854.8L478.688 707.1H440.888L367.738 826.1L292.838 707.1H253.288L349.888 854.8V957H383.138V854.8ZM637.503 814.55V735.1H704.003C711.236 735.1 718.003 735.567 724.303 736.5C730.836 737.2 736.553 738.95 741.453 741.75C746.353 744.55 750.203 748.517 753.003 753.65C755.803 758.783 757.203 765.783 757.203 774.65C757.203 787.95 753.003 797.983 744.603 804.75C736.436 811.283 722.903 814.55 704.003 814.55H637.503ZM604.253 707.1V957H725.003C737.37 957 748.22 955.017 757.553 951.05C767.12 946.85 775.053 941.483 781.353 934.95C787.886 928.183 792.786 920.483 796.053 911.85C799.32 903.217 800.953 894.35 800.953 885.25C800.953 869.85 796.87 856.783 788.703 846.05C780.536 835.317 768.753 828.317 753.353 825.05V824.35C765.253 819.683 774.353 812.567 780.653 803C787.186 793.2 790.453 781.65 790.453 768.35C790.453 755.75 787.536 745.133 781.703 736.5C776.103 727.867 769.22 721.1 761.053 716.2C757.32 713.867 752.77 712.117 747.403 710.95C742.27 709.783 736.67 708.967 730.603 708.5C724.536 707.8 718.353 707.45 712.053 707.45C705.986 707.217 700.27 707.1 694.903 707.1H604.253ZM637.503 929V842.55H713.453C720.453 842.55 727.22 843.25 733.753 844.65C740.286 845.817 746.003 848.033 750.903 851.3C756.036 854.333 760.12 858.533 763.153 863.9C766.186 869.267 767.703 876.033 767.703 884.2C767.703 898.2 763.503 909.167 755.103 917.1C746.936 925.033 735.503 929 720.803 929H637.503ZM863.103 832.05C863.103 819.45 864.736 807.083 868.003 794.95C871.269 782.583 876.403 771.5 883.403 761.7C890.403 751.9 899.386 744.083 910.353 738.25C921.319 732.183 934.386 729.15 949.553 729.15C964.719 729.15 977.786 732.183 988.753 738.25C999.719 744.083 1008.7 751.9 1015.7 761.7C1022.7 771.5 1027.84 782.583 1031.1 794.95C1034.37 807.083 1036 819.45 1036 832.05C1036 844.65 1034.37 857.133 1031.1 869.5C1027.84 881.633 1022.7 892.6 1015.7 902.4C1008.7 912.2 999.719 920.133 988.753 926.2C977.786 932.033 964.719 934.95 949.553 934.95C934.386 934.95 921.319 932.033 910.353 926.2C899.386 920.133 890.403 912.2 883.403 902.4C876.403 892.6 871.269 881.633 868.003 869.5C864.736 857.133 863.103 844.65 863.103 832.05ZM829.853 832.05C829.853 849.083 832.303 865.533 837.203 881.4C842.336 897.033 849.919 910.917 859.953 923.05C869.986 935.183 882.469 944.867 897.403 952.1C912.336 959.1 929.719 962.6 949.553 962.6C969.386 962.6 986.769 959.1 1001.7 952.1C1016.64 944.867 1029.12 935.183 1039.15 923.05C1049.19 910.917 1056.65 897.033 1061.55 881.4C1066.69 865.533 1069.25 849.083 1069.25 832.05C1069.25 815.017 1066.69 798.683 1061.55 783.05C1056.65 767.183 1049.19 753.183 1039.15 741.05C1029.12 728.917 1016.64 719.233 1001.7 712C986.769 704.767 969.386 701.15 949.553 701.15C929.719 701.15 912.336 704.767 897.403 712C882.469 719.233 869.986 728.917 859.953 741.05C849.919 753.183 842.336 767.183 837.203 783.05C832.303 798.683 829.853 815.017 829.853 832.05ZM1169.27 828.55L1082.47 957H1119.57L1188.87 853.75L1256.07 957H1296.67L1208.82 828.55L1291.42 707.1H1254.32L1189.22 804.75L1126.92 707.1H1087.02L1169.27 828.55ZM1325.14 707.1V957H1358.39V707.1H1325.14ZM1413.96 707.1V957H1445.46V756.45H1446.16L1576.71 957H1613.11V707.1H1581.61V909.75H1580.91L1449.31 707.1H1413.96ZM1853.8 925.85L1862.55 957H1883.55V825.4H1774V853.4H1853.8C1854.27 864.833 1852.75 875.567 1849.25 885.6C1845.75 895.4 1840.5 904.033 1833.5 911.5C1826.73 918.733 1818.33 924.45 1808.3 928.65C1798.27 932.85 1786.72 934.95 1773.65 934.95C1759.65 934.95 1747.28 932.267 1736.55 926.9C1726.05 921.3 1717.18 913.95 1709.95 904.85C1702.72 895.517 1697.23 884.9 1693.5 873C1689.77 860.867 1687.9 848.267 1687.9 835.2C1687.9 821.9 1689.53 808.95 1692.8 796.35C1696.07 783.517 1701.08 772.2 1707.85 762.4C1714.85 752.367 1723.72 744.317 1734.45 738.25C1745.42 732.183 1758.48 729.15 1773.65 729.15C1782.98 729.15 1791.73 730.317 1799.9 732.65C1808.3 734.75 1815.77 738.017 1822.3 742.45C1828.83 746.883 1834.32 752.6 1838.75 759.6C1843.18 766.367 1846.22 774.533 1847.85 784.1H1881.1C1878.77 769.4 1874.33 756.917 1867.8 746.65C1861.5 736.15 1853.57 727.517 1844 720.75C1834.67 713.983 1823.93 709.083 1811.8 706.05C1799.9 702.783 1787.18 701.15 1773.65 701.15C1753.82 701.15 1736.43 704.883 1721.5 712.35C1706.8 719.583 1694.43 729.383 1684.4 741.75C1674.6 754.117 1667.13 768.583 1662 785.15C1657.1 801.483 1654.65 818.75 1654.65 836.95C1654.65 853.283 1657.33 869.033 1662.7 884.2C1668.07 899.367 1675.88 912.783 1686.15 924.45C1696.42 936.117 1708.9 945.45 1723.6 952.45C1738.3 959.217 1754.98 962.6 1773.65 962.6C1788.35 962.6 1802.93 959.8 1817.4 954.2C1831.87 948.367 1844 938.917 1853.8 925.85Z" fill="white"/>
<path d="M322.6 1133.3H307.4C307.333 1137.7 308.133 1141.5 309.8 1144.7C311.467 1147.9 313.7 1150.53 316.5 1152.6C319.367 1154.67 322.633 1156.17 326.3 1157.1C330.033 1158.1 333.867 1158.6 337.8 1158.6C342.667 1158.6 346.933 1158.03 350.6 1156.9C354.333 1155.77 357.433 1154.2 359.9 1152.2C362.433 1150.13 364.333 1147.7 365.6 1144.9C366.867 1142.1 367.5 1139.07 367.5 1135.8C367.5 1131.8 366.633 1128.53 364.9 1126C363.233 1123.4 361.233 1121.33 358.9 1119.8C356.567 1118.27 354.2 1117.17 351.8 1116.5C349.467 1115.77 347.633 1115.27 346.3 1115C341.833 1113.87 338.2 1112.93 335.4 1112.2C332.667 1111.47 330.5 1110.73 328.9 1110C327.367 1109.27 326.333 1108.47 325.8 1107.6C325.267 1106.73 325 1105.6 325 1104.2C325 1102.67 325.333 1101.4 326 1100.4C326.667 1099.4 327.5 1098.57 328.5 1097.9C329.567 1097.23 330.733 1096.77 332 1096.5C333.267 1096.23 334.533 1096.1 335.8 1096.1C337.733 1096.1 339.5 1096.27 341.1 1096.6C342.767 1096.93 344.233 1097.5 345.5 1098.3C346.767 1099.1 347.767 1100.2 348.5 1101.6C349.3 1103 349.767 1104.77 349.9 1106.9H365.1C365.1 1102.77 364.3 1099.27 362.7 1096.4C361.167 1093.47 359.067 1091.07 356.4 1089.2C353.733 1087.33 350.667 1086 347.2 1085.2C343.8 1084.33 340.233 1083.9 336.5 1083.9C333.3 1083.9 330.1 1084.33 326.9 1085.2C323.7 1086.07 320.833 1087.4 318.3 1089.2C315.767 1091 313.7 1093.27 312.1 1096C310.567 1098.67 309.8 1101.83 309.8 1105.5C309.8 1108.77 310.4 1111.57 311.6 1113.9C312.867 1116.17 314.5 1118.07 316.5 1119.6C318.5 1121.13 320.767 1122.4 323.3 1123.4C325.833 1124.33 328.433 1125.13 331.1 1125.8C333.7 1126.53 336.267 1127.2 338.8 1127.8C341.333 1128.4 343.6 1129.1 345.6 1129.9C347.6 1130.7 349.2 1131.7 350.4 1132.9C351.667 1134.1 352.3 1135.67 352.3 1137.6C352.3 1139.4 351.833 1140.9 350.9 1142.1C349.967 1143.23 348.8 1144.13 347.4 1144.8C346 1145.47 344.5 1145.93 342.9 1146.2C341.3 1146.4 339.8 1146.5 338.4 1146.5C336.333 1146.5 334.333 1146.27 332.4 1145.8C330.467 1145.27 328.767 1144.5 327.3 1143.5C325.9 1142.43 324.767 1141.07 323.9 1139.4C323.033 1137.73 322.6 1135.7 322.6 1133.3ZM595.441 1109.6H610.641C610.175 1105.47 609.041 1101.8 607.241 1098.6C605.441 1095.4 603.141 1092.73 600.341 1090.6C597.608 1088.4 594.475 1086.73 590.941 1085.6C587.475 1084.47 583.775 1083.9 579.841 1083.9C574.375 1083.9 569.441 1084.87 565.041 1086.8C560.708 1088.73 557.041 1091.4 554.041 1094.8C551.041 1098.2 548.741 1102.2 547.141 1106.8C545.541 1111.33 544.741 1116.27 544.741 1121.6C544.741 1126.8 545.541 1131.67 547.141 1136.2C548.741 1140.67 551.041 1144.57 554.041 1147.9C557.041 1151.23 560.708 1153.87 565.041 1155.8C569.441 1157.67 574.375 1158.6 579.841 1158.6C584.241 1158.6 588.275 1157.93 591.941 1156.6C595.608 1155.27 598.808 1153.33 601.541 1150.8C604.275 1148.27 606.475 1145.2 608.141 1141.6C609.808 1138 610.841 1133.97 611.241 1129.5H596.041C595.441 1134.3 593.775 1138.17 591.041 1141.1C588.375 1144.03 584.641 1145.5 579.841 1145.5C576.308 1145.5 573.308 1144.83 570.841 1143.5C568.375 1142.1 566.375 1140.27 564.841 1138C563.308 1135.73 562.175 1133.2 561.441 1130.4C560.775 1127.53 560.441 1124.6 560.441 1121.6C560.441 1118.47 560.775 1115.43 561.441 1112.5C562.175 1109.57 563.308 1106.97 564.841 1104.7C566.375 1102.37 568.375 1100.53 570.841 1099.2C573.308 1097.8 576.308 1097.1 579.841 1097.1C581.775 1097.1 583.608 1097.43 585.341 1098.1C587.141 1098.7 588.741 1099.57 590.141 1100.7C591.541 1101.83 592.708 1103.17 593.641 1104.7C594.575 1106.17 595.175 1107.8 595.441 1109.6ZM792.963 1085.6V1157H808.663V1126.2H837.563V1157H853.263V1085.6H837.563V1113H808.663V1085.6H792.963ZM1050.68 1121.6C1050.68 1118.47 1051.02 1115.43 1051.68 1112.5C1052.42 1109.57 1053.55 1106.97 1055.08 1104.7C1056.62 1102.37 1058.62 1100.53 1061.08 1099.2C1063.55 1097.8 1066.55 1097.1 1070.08 1097.1C1073.62 1097.1 1076.62 1097.8 1079.08 1099.2C1081.55 1100.53 1083.55 1102.37 1085.08 1104.7C1086.62 1106.97 1087.72 1109.57 1088.38 1112.5C1089.12 1115.43 1089.48 1118.47 1089.48 1121.6C1089.48 1124.6 1089.12 1127.53 1088.38 1130.4C1087.72 1133.2 1086.62 1135.73 1085.08 1138C1083.55 1140.27 1081.55 1142.1 1079.08 1143.5C1076.62 1144.83 1073.62 1145.5 1070.08 1145.5C1066.55 1145.5 1063.55 1144.83 1061.08 1143.5C1058.62 1142.1 1056.62 1140.27 1055.08 1138C1053.55 1135.73 1052.42 1133.2 1051.68 1130.4C1051.02 1127.53 1050.68 1124.6 1050.68 1121.6ZM1034.98 1121.6C1034.98 1126.8 1035.78 1131.67 1037.38 1136.2C1038.98 1140.67 1041.28 1144.57 1044.28 1147.9C1047.28 1151.23 1050.95 1153.87 1055.28 1155.8C1059.68 1157.67 1064.62 1158.6 1070.08 1158.6C1075.62 1158.6 1080.55 1157.67 1084.88 1155.8C1089.22 1153.87 1092.88 1151.23 1095.88 1147.9C1098.88 1144.57 1101.18 1140.67 1102.78 1136.2C1104.38 1131.67 1105.18 1126.8 1105.18 1121.6C1105.18 1116.27 1104.38 1111.33 1102.78 1106.8C1101.18 1102.2 1098.88 1098.2 1095.88 1094.8C1092.88 1091.4 1089.22 1088.73 1084.88 1086.8C1080.55 1084.87 1075.62 1083.9 1070.08 1083.9C1064.62 1083.9 1059.68 1084.87 1055.28 1086.8C1050.95 1088.73 1047.28 1091.4 1044.28 1094.8C1041.28 1098.2 1038.98 1102.2 1037.38 1106.8C1035.78 1111.33 1034.98 1116.27 1034.98 1121.6ZM1299.52 1121.6C1299.52 1118.47 1299.85 1115.43 1300.52 1112.5C1301.25 1109.57 1302.38 1106.97 1303.92 1104.7C1305.45 1102.37 1307.45 1100.53 1309.92 1099.2C1312.38 1097.8 1315.38 1097.1 1318.92 1097.1C1322.45 1097.1 1325.45 1097.8 1327.92 1099.2C1330.38 1100.53 1332.38 1102.37 1333.92 1104.7C1335.45 1106.97 1336.55 1109.57 1337.22 1112.5C1337.95 1115.43 1338.32 1118.47 1338.32 1121.6C1338.32 1124.6 1337.95 1127.53 1337.22 1130.4C1336.55 1133.2 1335.45 1135.73 1333.92 1138C1332.38 1140.27 1330.38 1142.1 1327.92 1143.5C1325.45 1144.83 1322.45 1145.5 1318.92 1145.5C1315.38 1145.5 1312.38 1144.83 1309.92 1143.5C1307.45 1142.1 1305.45 1140.27 1303.92 1138C1302.38 1135.73 1301.25 1133.2 1300.52 1130.4C1299.85 1127.53 1299.52 1124.6 1299.52 1121.6ZM1283.82 1121.6C1283.82 1126.8 1284.62 1131.67 1286.22 1136.2C1287.82 1140.67 1290.12 1144.57 1293.12 1147.9C1296.12 1151.23 1299.78 1153.87 1304.12 1155.8C1308.52 1157.67 1313.45 1158.6 1318.92 1158.6C1324.45 1158.6 1329.38 1157.67 1333.72 1155.8C1338.05 1153.87 1341.72 1151.23 1344.72 1147.9C1347.72 1144.57 1350.02 1140.67 1351.62 1136.2C1353.22 1131.67 1354.02 1126.8 1354.02 1121.6C1354.02 1116.27 1353.22 1111.33 1351.62 1106.8C1350.02 1102.2 1347.72 1098.2 1344.72 1094.8C1341.72 1091.4 1338.05 1088.73 1333.72 1086.8C1329.38 1084.87 1324.45 1083.9 1318.92 1083.9C1313.45 1083.9 1308.52 1084.87 1304.12 1086.8C1299.78 1088.73 1296.12 1091.4 1293.12 1094.8C1290.12 1098.2 1287.82 1102.2 1286.22 1106.8C1284.62 1111.33 1283.82 1116.27 1283.82 1121.6ZM1535.75 1085.6V1157H1586.25V1143.8H1551.45V1085.6H1535.75Z" fill="white" fill-opacity="0.54"/>
</svg>
