<svg width="487" height="480" viewBox="0 0 487 480" fill="none" xmlns="http://www.w3.org/2000/svg">
<rect x="351" y="362" width="82" height="23" fill="#D62324"/>
<rect x="29" y="444" width="162" height="27" fill="#D62324"/>
<rect x="33" y="53" width="153" height="24" fill="#D62324"/>
<path d="M368.845 211.578C383.818 241.453 389.582 275.103 385.405 308.259L384.062 319.008L399.939 320.992L401.282 310.243C405.853 273.953 399.544 237.122 383.155 204.422L368.845 211.578Z" fill="black"/>
<path d="M485.292 236.186L482.143 223.585C481.12 219.53 479.292 215.723 476.767 212.39C474.242 209.056 471.072 206.266 467.445 204.184L429.2 182.328C423.867 176.11 416.44 172.061 408.324 170.947C400.208 169.833 391.966 171.731 385.154 176.283L377.859 181.146L358.529 155.372L326.656 107.562C325.655 106.06 324.174 104.941 322.456 104.387C320.738 103.832 318.882 103.876 317.191 104.509L253.191 128.509C252.063 128.932 251.045 129.605 250.213 130.477C249.381 131.349 248.757 132.397 248.387 133.544C248.017 134.691 247.911 135.907 248.077 137.1C248.242 138.294 248.675 139.435 249.344 140.438L257.242 152.285C259.734 155.992 263.134 158.999 267.118 161.017C271.102 163.036 275.537 164 280 163.816V166.702L272.41 189.47C272.009 190.673 271.9 191.953 272.091 193.207C272.282 194.46 272.769 195.649 273.51 196.678C274.251 197.706 275.226 198.544 276.354 199.121C277.483 199.699 278.732 200 280 200H290.234L294.04 211.418C289.748 215.176 286.709 220.156 285.331 225.691L282.983 235.084C281.2 242.305 282.348 249.938 286.176 256.314L283.267 260.678C279.845 265.826 277.698 271.715 277.004 277.857C276.31 283.999 277.089 290.219 279.276 296H272C271.473 296 270.947 296.052 270.431 296.155L239.81 302.28C239.418 300.5 238.43 298.907 237.01 297.765C235.59 296.624 233.822 296.001 232 296H205.766L201.413 282.94C200.545 280.331 199.018 277.99 196.979 276.143C194.941 274.297 192.46 273.009 189.777 272.402C189.864 237.642 190.924 202.527 192.961 167.894L199.986 48.4697C200.05 47.3815 199.891 46.2917 199.519 45.2671C199.146 44.2426 198.568 43.305 197.82 42.5119C197.073 41.7187 196.171 41.0868 195.17 40.6549C194.169 40.2229 193.09 40.0001 192 40H120V16H232V0H0V16H104V40H32C29.9596 40.0001 27.9964 40.7798 26.5118 42.1796C25.0273 43.5793 24.1336 45.4934 24.0137 47.5303L16.9883 166.955C11.015 268.938 13.3747 371.238 24.044 472.837C24.251 474.803 25.1784 476.623 26.6475 477.945C28.1166 479.268 30.0233 480 32 480H192C193.121 480 194.23 479.764 195.254 479.308C196.278 478.852 197.195 478.186 197.945 477.352C198.696 476.519 199.262 475.538 199.609 474.471C199.955 473.405 200.073 472.278 199.956 471.163C196.083 434.373 193.299 397.022 191.636 360H232C233.96 359.999 235.851 359.279 237.315 357.976C238.779 356.673 239.714 354.878 239.941 352.932L303.116 359.951C303.411 359.984 303.707 360 304.004 360C305.602 360 307.163 359.52 308.487 358.624C309.81 357.727 310.834 356.455 311.428 354.971L323.494 324.805C325.182 320.574 327.953 316.861 331.529 314.038L344 330.667V352C341.878 352 339.843 352.843 338.343 354.343C336.843 355.843 336 357.878 336 360V390.357L312.646 444.849C312.22 445.844 312 446.917 312 448V472H328V449.642L349.275 400H433.441L448.155 473.569L463.845 470.431L448 391.208V360C448 357.878 447.157 355.843 445.657 354.343C444.157 352.843 442.122 352 440 352V320.363L444.33 272.731C447.779 274.026 451.432 274.69 455.116 274.691C459.836 274.71 464.497 273.65 468.744 271.593C472.992 269.536 476.713 266.536 479.624 262.821C482.536 259.106 484.559 254.776 485.542 250.16C486.524 245.544 486.439 240.764 485.292 236.186V236.186ZM183.516 56L182.574 72H38.6018L39.543 56H183.516ZM39.2168 464C38.677 458.671 38.1638 453.338 37.6772 448H181.605C182.095 453.341 182.605 458.674 183.135 464H39.2168ZM180.212 432H36.2752C28.9209 344.154 27.8134 255.897 32.9609 167.894L37.6606 88H181.633L176.988 166.955C175.474 192.706 174.501 218.721 174.052 244.663L106.299 224.337L101.701 239.663L173.837 261.303C173.807 264.873 173.787 268.438 173.778 272H168C165.192 272.002 162.434 272.742 160.003 274.146C157.571 275.55 155.552 277.569 154.147 280H144C142.447 280.001 140.898 280.152 139.374 280.452L89.3154 272.109L86.6845 287.891L122.271 293.822C120.773 297.006 119.997 300.481 120 304V312H80V328H120V336C119.999 339.209 120.644 342.386 121.895 345.341C123.147 348.296 124.981 350.969 127.287 353.201L85.2656 368.481L90.7344 383.519L155.41 360H175.619C176.684 383.941 178.22 408.017 180.212 432ZM192 344H144C141.879 343.998 139.846 343.154 138.346 341.654C136.846 340.154 136.002 338.121 136 336V304C136.002 301.879 136.846 299.846 138.346 298.346C139.846 296.846 141.879 296.002 144 296H152V304C152 306.122 152.843 308.157 154.343 309.657C155.843 311.157 157.878 312 160 312C162.122 312 164.157 311.157 165.657 309.657C167.157 308.157 168 306.122 168 304V288H186.233L192 305.298V344ZM270.555 143.41L268.249 139.951L316.865 121.72L338.014 153.442C334.509 152.946 331.149 151.716 328.153 149.833C325.156 147.95 322.59 145.456 320.623 142.514L318.657 139.563C317.64 138.035 316.127 136.903 314.374 136.359C312.621 135.814 310.734 135.89 309.029 136.572L282.589 147.148C280.458 147.992 278.102 148.081 275.913 147.401C273.724 146.721 271.833 145.313 270.555 143.41V143.41ZM224 344H208V312H224V344ZM432 384H352V368H432V384ZM360 352V328C360 326.269 359.439 324.585 358.4 323.2L343.412 303.216C348.987 295.896 352.004 286.949 352 277.748V267.313L357.657 261.657C359.157 260.156 360 258.121 360 256C360 253.878 359.157 251.843 357.657 250.343C356.156 248.843 354.121 248 352 248C349.878 248 347.843 248.843 346.343 250.343L340.687 256H320V272H336V277.748C336.004 282.046 334.945 286.279 332.917 290.069C330.889 293.858 327.955 297.088 324.376 299.468C317.281 304.184 311.792 310.95 308.639 318.864L298.833 343.376L240 336.84V318.559L272.792 312H288C290.122 312 292.157 311.157 293.657 309.657C295.157 308.157 296 306.122 296 304V296C296 294.758 295.711 293.533 295.155 292.422C293.361 288.822 292.547 284.812 292.797 280.797C293.047 276.781 294.352 272.903 296.579 269.553L302.656 260.438C303.682 258.899 304.143 257.052 303.961 255.212C303.779 253.371 302.965 251.651 301.657 250.343C300.199 248.877 299.143 247.059 298.591 245.066C298.039 243.073 298.01 240.972 298.506 238.964L300.853 229.572C301.377 227.464 302.466 225.539 304.002 224.003C305.538 222.467 307.463 221.378 309.571 220.854L329.94 215.761C331.06 215.481 332.106 214.963 333.006 214.24C333.906 213.518 334.639 212.61 335.155 211.578L343.155 195.578L328.845 188.422L322.49 201.131L308.632 204.596L303.59 189.47C303.059 187.877 302.04 186.492 300.678 185.51C299.316 184.528 297.679 184 296 184H291.1L295.59 170.53C295.861 169.714 296 168.86 296 168V159.016L309.046 153.798C313.649 159.722 319.784 164.274 326.789 166.962C333.793 169.649 341.399 170.369 348.783 169.045L369.6 196.8C370.827 198.436 372.633 199.54 374.649 199.885C376.665 200.23 378.736 199.791 380.438 198.656L394.029 189.596C396.253 188.103 398.79 187.142 401.445 186.786C404.099 186.431 406.8 186.691 409.338 187.546C411.923 188.414 414.273 189.87 416.201 191.799C418.13 193.727 419.586 196.077 420.454 198.662C428.02 221.264 430.798 245.194 428.61 268.928L424.033 319.276C424.011 319.517 424 319.758 424 320V352H360ZM467.698 252.031C465.78 254.886 462.942 256.999 459.657 258.019C456.372 259.039 452.837 258.905 449.639 257.64L445.308 255.907C445.557 239.29 443.588 222.714 439.455 206.617L459.507 218.076C461.262 219.083 462.796 220.434 464.018 222.047C465.241 223.66 466.125 225.502 466.62 227.465L469.771 240.067C470.276 242.096 470.352 244.207 469.995 246.267C469.638 248.327 468.856 250.29 467.698 252.031V252.031Z" fill="black"/>
<path d="M392.845 436.422L376.845 468.422L391.155 475.578L407.155 443.578L392.845 436.422Z" fill="black"/>
<path d="M148.421 384.844L116.422 400.846L123.579 415.156L155.578 399.154L148.421 384.844Z" fill="black"/>
</svg>
