<svg width="342" height="512" viewBox="0 0 342 512" fill="none" xmlns="http://www.w3.org/2000/svg">
<path d="M273.067 85.3333C282.492 85.3333 290.133 77.6923 290.133 68.2667V34.1333C290.133 24.7077 282.492 17.0667 273.067 17.0667H85.3333C85.3333 7.64101 77.6923 0 68.2667 0H34.1333C24.7077 0 17.0667 7.64101 17.0667 17.0667V443.733C7.64101 443.733 0 451.374 0 460.8V494.933C0 504.359 7.64101 512 17.0667 512H324.267C333.692 512 341.333 504.359 341.333 494.933V460.8C341.333 451.374 333.692 443.733 324.267 443.733H191.266L85.3333 337.801V191.266L191.266 85.3333H247.467V107.844L208.751 154.3C201.397 156.349 196.299 163.033 196.267 170.667V409.6C196.267 419.026 203.908 426.667 213.333 426.667H298.667C308.092 426.667 315.733 419.026 315.733 409.6V170.667C315.701 163.033 310.603 156.349 303.249 154.3L264.533 107.844V85.3333H273.067ZM256 124.262L280.448 153.6H231.552L256 124.262ZM213.333 221.867H298.667V358.4H213.333V221.867ZM213.333 204.8V170.667H298.667V204.8H213.333ZM213.333 409.6V375.467H298.667V409.6H213.333ZM273.067 34.1333V68.2667H85.3333V34.1333H273.067ZM85.3333 413.133L115.934 443.733H85.3333V413.133ZM85.3333 85.3333H115.934L85.3333 115.934V85.3333ZM34.1333 17.0667H68.2667V443.733H34.1333V17.0667ZM324.267 494.933H17.0667V460.8H324.267V494.933ZM167.134 443.733H140.066L85.3333 389.001V361.933L167.134 443.733ZM85.3333 167.134V140.066L140.066 85.3333H167.134L85.3333 167.134Z" fill="black"/>
<path d="M51.2001 59.7334C55.9129 59.7334 59.7334 55.9129 59.7334 51.2001C59.7334 46.4873 55.9129 42.6667 51.2001 42.6667C46.4873 42.6667 42.6667 46.4873 42.6667 51.2001C42.6667 55.9129 46.4873 59.7334 51.2001 59.7334Z" fill="black"/>
<path d="M51.2001 366.933C55.9129 366.933 59.7334 363.113 59.7334 358.4C59.7334 353.687 55.9129 349.867 51.2001 349.867C46.4873 349.867 42.6667 353.687 42.6667 358.4C42.6667 363.113 46.4873 366.933 51.2001 366.933Z" fill="black"/>
<path d="M162.133 59.7334C166.846 59.7334 170.667 55.9129 170.667 51.2001C170.667 46.4873 166.846 42.6667 162.133 42.6667C157.421 42.6667 153.6 46.4873 153.6 51.2001C153.6 55.9129 157.421 59.7334 162.133 59.7334Z" fill="black"/>
<path d="M170.667 486.4C175.38 486.4 179.2 482.579 179.2 477.867C179.2 473.154 175.38 469.333 170.667 469.333C165.954 469.333 162.133 473.154 162.133 477.867C162.133 482.579 165.954 486.4 170.667 486.4Z" fill="black"/>
</svg>
